<svg viewBox="0 0 1024 1024" version="1.1" xmlns="http://www.w3.org/2000/svg" width="1em" height="1em" class="svg-2uQT9" role="img" alt="" aria-label=""><path d="M790.9 587.6c15.4-12.3 37.8-9.8 50.1 5.6l54.5 68.2c18.6 23.3 2 57.8-27.8 57.8l-255.7 0c-19.7 0-35.6-15.9-35.6-35.6 0-19.7 15.9-35.6 35.6-35.6l181.6 0-8.2-10.3c-11.2-14-10.1-33.7 1.7-46.5l3.8-3.6z m-102.1 309.1c-15.4 12.3-37.8 9.8-50-5.6l-54.6-68.2c-18.6-23.3-2-57.8 27.8-57.8l255.8 0c19.7 0 35.6 15.9 35.6 35.6 0 19.7-15.9 35.6-35.6 35.6l-181.7 0 8.3 10.4c11.2 14 10.1 33.7-1.7 46.4l-3.9 3.6z m-176.8-333.5c19.7 0 35.6 15.9 35.6 35.6 0 19.7-15.9 35.6-35.6 35.5l-204.8 0c-62.5 0-108 50-108 105.2l-0.3 110.5 313.1 0c18 0 32.9 13.4 35.3 30.7l0.3 4.9c0 19.7-15.9 35.6-35.6 35.6l-319.7 0c-27.9 0-49.4-12.7-58.9-36.7-4.3-10.7-5.5-18.7-5.6-34.1l0.2-21.7 0-89.2c0-93.1 75.8-176.4 179.2-176.3l204.8 0z m0-496.6c-118.8 0-215 96.3-215 215 0 118.8 96.3 215 215 215 118.8 0 215-96.3 215-215 0-118.8-96.3-215-215-215z m0 71.6c79.2 0 143.4 64.2 143.4 143.4 0 79.2-64.2 143.4-143.4 143.4-79.2 0-143.4-64.2-143.4-143.4 0-79.2 64.2-143.4 143.4-143.4z"/></svg>