<svg viewBox="0 0 1024 1024" version="1.1" xmlns="http://www.w3.org/2000/svg" width="1em" height="1em" class="svg-2uQT9" role="img" alt="" aria-label=""><path d="M691.2 551.4c25.3-14.6 56.6-14.6 81.9 0l104 60c25.3 14.6 41 41.7 41 71l0 120c0 29.3-15.6 56.3-41 71l-104 60c-25.3 14.6-56.6 14.6-81.9 0l-104-60c-25.3-14.6-41-41.7-41-71l0-120c0-29.3 15.6-56.3 41-71z m98.1-449c50.7 0 91.3 41.8 91.3 92.9l0 291.1c0 19.8-16 35.8-35.8 35.8-19.8 0-35.8-16-35.8-35.8l0-291.1c0-12-9-21.3-19.7-21.2l-554.6 0c-10.6 0-19.6 9.3-19.7 21.2l0 628.2c0 12 9 21.3 19.7 21.3l251.7 0c19.8 0 35.8 16 35.8 35.8 0 19.8-16 35.8-35.8 35.9l-251.7 0c-50.7 0-91.3-41.8-91.3-93l0-628.2c0-51.1 40.6-92.9 91.3-92.9l554.6 0z m-46.9 502.2c-6.3-3.7-14.1-3.7-20.5 0l-104 60c-6.3 3.7-10.2 10.4-10.2 17.8l0 120c0 7.3 3.9 14.1 10.2 17.8l104 60c6.3 3.7 14.1 3.7 20.5 0l104-60c6.3-3.7 10.2-10.4 10.2-17.8l0-120c0-7.3-3.9-14.1-10.2-17.8z m-10.2 86.6c28.3 0 51.2 22.9 51.2 51.2 0 28.3-22.9 51.2-51.2 51.2-28.3 0-51.2-22.9-51.2-51.2 0-28.3 22.9-51.2 51.2-51.2z m-254.8-127.7c19.9 0 36.1 16.1 36.1 36.1 0 19.9-16.1 36.1-36.1 36.1l-81.4 0c-19.9 0-36.1-16.1-36.1-36.1 0-19.9 16.1-36.1 36.1-36.1l81.4 0z m155.8-193.2c19.9 0 36.1 16.1 36 36.1 0 19.9-16.1 36.1-36 36l-237.2 0c-19.9 0-36.1-16.1-36.1-36 0-19.9 16.1-36.1 36.1-36.1l237.2 0z"/></svg>