<svg viewBox="0 0 1024 1024" version="1.1" xmlns="http://www.w3.org/2000/svg" width="1em" height="1em" class="svg-2uQT9" role="img" alt="" aria-label=""><path d="M512 77.3c217.8 0 394.2 179 394.2 399.6 0 14.5-0.9 29.1-2.5 44l-3 21.1c-1.3 8.1-2.9 16.3-4.9 25l-4.2 16.7c-17.7 64.7-51.1 123.4-96.1 170.4l-11.6 11.5c-67.6 71.4-157.1 129.1-257.3 173.9l-14.6 6.5-14.6-6.5c-100.1-44.7-189.7-102.4-256.1-172.6-56-53.7-95.4-122.9-112.9-198.9l-0.6-2.3c-2.6-11.7-4.7-23.7-6.2-35.3l-1.4-9.4c-1.6-15.1-2.5-29.7-2.4-44.1 0-220.6 176.4-399.6 394.2-399.6z m0 71.7c-178 0-322.6 146.7-322.6 327.9 0 11.7 0.7 23.7 1.9 34.8l2.8 18.8c1 6.6 2.2 12.8 3.4 18.3l4.3 17c15.8 57.2 46.7 108.7 90.3 150.5l14.3 14.5c58.7 57.2 135.1 105.2 220.2 143.2l-14.7-6.7 6.6-3c69-32.8 131.6-72.3 183.3-118.7l16.8-15.7 24.9-25.2c40.5-42.5 69.1-95.2 82-151.8l3.6-17.3 3.2-21.2 1.3-13.6c0.6-8.1 0.9-16.1 1-23.9 0-181.2-144.5-327.9-322.6-327.9z m0 184.3c76.4 0 138.2 61.9 138.2 138.3 0 76.3-61.9 138.2-138.2 138.2-76.3 0-138.2-61.9-138.2-138.2 0-76.4 61.9-138.2 138.2-138.3z m0 71.7c-36.8 0-66.6 29.8-66.6 66.6 0 36.7 29.8 66.6 66.6 66.5 36.8 0 66.6-29.8 66.6-66.5 0-36.8-29.8-66.6-66.6-66.6z"/></svg>