<svg viewBox="0 0 1024 1024" version="1.1" xmlns="http://www.w3.org/2000/svg" width="1em" height="1em" class="starImg-11oY2" style="width:24px;height:24px;font-size:24px" aria-hidden="true"><path d="M512 727.8l-187 137.4c-16.3 12-39.2 8.5-51.1-7.8-7-9.5-9-21.9-5.3-33.1l73-220.4-188.6-135.3c-16.4-11.8-20.2-34.6-8.3-51.1 6.9-9.6 18.1-15.3 29.9-15.2l232.1 1.3 70.5-221.1c6.1-19.2 26.7-29.9 45.9-23.8 11.3 3.6 20.1 12.4 23.7 23.8l70.5 221.1 232.1-1.3c20.2-0.1 36.7 16.2 36.8 36.4 0.1 11.9-5.6 23-15.2 29.9l-188.6 135.3 73 220.4c6.3 19.2-4 39.9-23.2 46.2-11.2 3.7-23.6 1.8-33.2-5.3l-187-137.4z"/></svg>