<svg viewBox="0 0 1024 1024" version="1.1" xmlns="http://www.w3.org/2000/svg" width="1em" height="1em" class="unfavIcon-oDQNb" aria-hidden="true" data-uniqid="11"><path d="M171.4 237.2c-93.5 93.5-93.5 245.2 0 338.8l283.6 283.6c31.5 31.5 82.5 31.5 114 0l283.6-283.6c93.5-93.5 93.5-245.2 0-338.8l-5.2-5c-92.1-86.9-236.3-86.9-328.4 0l-7 6.8-1.8-1.8c-93.6-93.6-245.2-93.6-338.8 0z m39.1 39.1c71.9-71.9 188.6-71.9 260.5 0l21.4 21.4c10.8 10.8 28.3 10.8 39.2 0.1l21.4-21.5c71.9-71.9 188.6-71.9 260.5 0 71.9 71.9 71.9 188.6 0 260.5l-283.6 283.6c-9.9 9.9-25.9 9.9-35.8 0l-283.6-283.6c-71.9-71.9-71.9-188.6 0-260.5z"/></svg>