<svg viewBox="0 0 1024 1024" version="1.1" xmlns="http://www.w3.org/2000/svg" width="1em" height="1em" class="svg-2uQT9" role="img" alt="" aria-label=""><path d="M793.7 128.3c46.4 0 88.2 28.3 105.5 71.3l0 0 25.9 64.5c2.5 6.2 4.4 12.5 5.7 19l-0.4-2-0.3-1 0.5 1c7.4 19 11.5 39.2 12 60l0 0 0 4.1c0 62.7-32.9 117.8-82.3 148.9l0 283.3c0 50.9-40.7 92.3-91.3 93.5l-2.2 0-493.9 0c-50.9 0-92.3-40.7-93.4-91.4l-0.1-2.1 0-283.3c-49.5-31.1-82.3-86.2-82.3-148.9 0-24.7 5.1-48.8 15-71.1l0 0 0.1-0.2 0.7-2 0.4-1.3 1-2.7 26.4-67.4c17-43.6 59.1-72.3 105.8-72.2l0 0z m-150.3 342.1l-2.7 2.5c-31.3 29.6-73 47.3-117.8 48.1l0 0-3 0c-47 0-90.8-18.6-123.1-50.2l0 0-0.4-0.4-2.7 2.5c-31.3 29.6-73 47.3-117.7 48.1l0 0-3.1 0c-10.2 0-20.3-0.9-30-2.5l0 258.9c0 16.1 12.7 29.2 28.6 30l1.4 0 493.9 0c16.1 0 29.2-12.7 30-28.5l0-1.5 0-258.9c-9.7 1.7-19.8 2.5-30 2.5-47 0-90.8-18.6-123.1-50.2l0 0-0.3-0.4z m150.3-278.7l-547.2 0c-20.7 0-39.2 12.7-46.7 32l0 0-26.3 67.3c-0.5 1.2-0.9 2.4-1.3 3.6l0 0-0.4 1.2c-0.3 0.8-0.6 1.7-1 2.5l0 0-0.7 1.6c-6.2 14.1-9.5 29.5-9.5 45.3 0 62 50.3 112.3 112.3 112.3 39.9 0 76.1-20.9 96.3-54.4l0 0 0.8-1.3c12.8-19.2 41.5-18.8 53.6 1.3 20.2 33.5 56.4 54.5 96.3 54.4 39.9 0 76.1-20.9 96.3-54.4l0 0 0.8-1.3c12.8-19.2 41.5-18.8 53.5 1.3 20.2 33.5 56.4 54.5 96.3 54.4 62 0 112.3-50.3 112.4-112.3 0-15.1-3-29.8-8.7-43.3-0.8-1.8-1.4-3.8-1.8-5.8-0.6-2.8-1.5-5.7-2.5-8.4l0 0-25.9-64.4c-7.6-19-26.1-31.5-46.6-31.6l0 0z"/></svg>