<svg viewBox="0 0 1024 1024" version="1.1" xmlns="http://www.w3.org/2000/svg" width="1em" height="1em" class="helpful-qleit" aria-hidden="true"><path d="M515.2 36.6c63 0 118.6 43 136.7 105.7l0.7 2.8 1.5 4.1 0.8 3c6.7 31.6 10.1 63.3 10.1 95.1 0 28.1-2.6 56.1-7.7 83.6l-1.9 9.8 159.8 0.3 8 0.7c44.2 3.5 84.8 27.4 109.6 66l2.8 4.5c14.1 23.1 21.6 49.8 22.1 76.9l-0.2 12.1c0.1 5.8-0.3 11.4-1.4 16.4l-80.1 367.9c-1.5 5.8-3.6 11.3-6.3 16.5l-2.8 4.8-1.7 3.4c-10.6 20.1-25.6 37.3-43.7 50.4l-5 3.4c-20.1 13.2-42.7 21-65.9 22.9l-13.1 0.5-657.4-0.3c-39 0-71.1-31.8-73.1-72.2l-0.2-6.1 0.4-419.5c0-37.3 26-69 61.4-75l3.6-0.6c109.3-12.7 181.4-34.8 214.3-63.1 45.2-38.8 85.8-116.5 85.9-165.4 0-84 63.2-148.6 142.8-148.6z m0 81.9c-31.7 0-57 23.9-60.5 58.5l-0.4 8.2c0 74.2-51.8 173.8-114.4 227.5-46.3 39.8-124.9 64.8-234 79.4l-16.7 2-0.4 411.1 650.1 0.3c11.4 0 22.6-3.4 31.4-9.2l3.3-2.2c5.9-4.2 11.1-9.6 15-15.1l2-3.4 3.2-6.2 2.9-5 78.7-361.3 0-2.4 0.3-12.9c-0.4-8.8-2.5-17.4-5.9-25.1l-3.9-7.4-2-3.3c-10.8-16.7-28.1-27.1-46.1-28.6l-7.3-0.6-155.2-0.1c-48.8 0-86.1-42.2-81.5-89.7l1.2-8.4 1.8-8.7c4.2-22.6 6.3-45.6 6.3-68.6 0-25.7-2.8-51.7-7.7-75.3l1.4 3.9-3.6-10.8c-8.2-28.2-32-46.6-58-46.6z m-245.5 409.3c22.6 0 41 18.3 40.9 41l0 250.9c0 22.6-18.3 41-40.9 40.9-22.6 0-41-18.3-41-40.9l0-250.9c0-22.6 18.3-41 41-41z"/></svg>