<svg viewBox="0 0 1024 1024" version="1.1" xmlns="http://www.w3.org/2000/svg" width="1em" height="1em" class="icon-jXTbd" aria-hidden="true"><path d="M172.6 242.5c-96.5 95.9-96.5 251.5 0 347.5l248.8 247.4c50.1 49.7 131.1 49.7 181.2 0l248.8-247.4c96.5-96 96.5-251.6 0-347.5l-8-7.5c-91.4-83.3-230.6-85.7-324.7-7.2l-6.7 5.8-6.6-5.8c-96.9-80.8-241.6-75.9-332.8 14.7z m282.1 54.3l6.6 6.2 20.6 20.5c16.6 16.6 43.5 16.6 60.1 0.1l20.7-20.5c63.1-62.7 165.5-62.7 228.5-0.1 62.9 62.6 62.9 163.9 0 226.5l-248.8 247.3c-16.8 16.7-44 16.7-60.8 0l-248.8-247.3c-62.9-62.6-62.9-163.9 0-226.5 60.9-60.5 158.4-62.6 221.9-6.2z"/></svg>