<svg viewBox="0 0 1024 1024" version="1.1" xmlns="http://www.w3.org/2000/svg" width="1em" height="1em" class="svg-2uQT9" role="img" alt="" aria-label=""><path d="M833.4 194.6c47.3 0 85.6 38.3 85.6 85.6l0 155c0 19.8-16 35.8-35.8 35.8l-5.1 0.4c-20.2 2.5-35.8 19.8-35.9 40.6 0 22.6 18.3 41 41 41l4.9 0.3c17.5 2.4 31 17.4 30.9 35.5l0 155c0 47.3-38.3 85.6-85.6 85.6l-642.8 0c-47.3 0-85.6-38.3-85.6-85.6l0-155c0-19.8 16-35.8 35.8-35.8l5.1-0.4c20.2-2.5 35.8-19.8 35.9-40.6 0-22.6-18.3-41-41-41l-4.9-0.3c-17.5-2.4-31-17.4-30.9-35.5l0-155c0-47.3 38.3-85.6 85.6-85.6z m0 71.6l-642.8 0c-7.7 0-13.9 6.2-14 14l0 125 2.7 0.9c40.8 14.9 70.7 52.7 73.9 97.9l0.2 8c0 48.7-30.9 90.2-74.1 105.9l-2.7 0.9 0 125c0 6.6 4.6 12.1 10.8 13.6l3.2 0.4 642.8 0c7.7 0 13.9-6.2 14-14l0-125-2.7-0.9c-40.8-14.9-70.7-52.7-73.9-97.9l-0.2-8c0-48.7 30.9-90.2 74.1-105.9l2.7-0.9 0-125c0-6.6-4.6-12.1-10.8-13.6l-3.2-0.4z m-213.9 345.6c24 0 43.5 19.5 43.5 43.6 0 24-19.5 43.5-43.5 43.5-24 0-43.5-19.5-43.5-43.5 0-24 19.5-43.5 43.5-43.6z m0-143.3c24 0 43.5 19.5 43.5 43.5 0 24-19.5 43.5-43.5 43.5-24 0-43.5-19.5-43.5-43.5 0-24 19.5-43.5 43.5-43.5z m0-143.4c24 0 43.5 19.5 43.5 43.5 0 24-19.5 43.5-43.5 43.6-24 0-43.5-19.5-43.5-43.6 0-24 19.5-43.5 43.5-43.5z"/></svg>