<svg viewBox="0 0 1024 1024" version="1.1" xmlns="http://www.w3.org/2000/svg" width="1em" height="1em" class="titleIcon-12v8U" style="fill:#000000" aria-hidden="true"><path d="M686.1 148.5c59.4 0 107.5 48.1 107.5 107.5l-0.1 20.4 147.9 58.5c43.7 17.3 72.4 59.5 72.4 106.5l0 214.4c0 49.7-33.7 91.5-79.5 103.8 0.9 2.6 1.3 5.5 1.3 8.4 0 63.7-51.2 115.5-114.5 115.5-63.3 0-114.5-51.8-114.5-115.5 0-1.7 0.1-3.5 0.4-5.1l-295.9 0c0.3 1.7 0.4 3.4 0.4 5.1 0 63.7-51.2 115.5-114.5 115.5-63.3 0-114.5-51.8-114.5-115.5 0-2 0.2-3.9 0.5-5.8-53.9-5.6-96-51.3-96-106.8l0-52.6c0-17 13.8-30.7 30.8-30.8 17 0 30.7 13.8 30.7 30.8l0 52.6c0 25.4 20.6 46.1 46.1 46l537.5 0 0.1-445.4c0-23.5-17.6-42.9-40.3-45.7l-5.8-0.4-491.5 0c-25.4 0-46.1 20.6-46.1 46.1l-0.1 56.2 180.8 0.1c15.3 0 27.9 11.1 30.3 25.7l0.4 5c0 17-13.8 30.7-30.7 30.7l-211.4 0c-17 0-30.7-13.8-30.8-30.7l0-87c0-59.4 48.1-107.5 107.6-107.5l491.5 0z m-335.6 614.4l-107 0c0.3 1.7 0.4 3.4 0.4 5.1 0 29.9 23.8 54.1 53.1 54.1 29.2 0 53.1-24.1 53.1-54.1 0-1.7 0.1-3.4 0.4-5.1z m524 0.3l-106.9 0 0.4 4.8c0 29.9 23.8 54.1 53.1 54.1 29.2 0 53.1-24.1 53-54.1l0.4-4.8z m-81-420.7l0 359.3 112.7 0c23.5 0 42.9-17.6 45.8-40.3l0.3-5.7 0-214.4c0-21.8-13.3-41.3-33.5-49.4l-125.3-49.5z m-614.3 102.9c17 0 30.7 13.8 30.7 30.8 0 17-13.8 30.7-30.7 30.7l-143.4 0c-17 0-30.7-13.8-30.7-30.7 0-17 13.8-30.7 30.7-30.8l143.4 0z"/></svg>