<svg viewBox="0 0 1024 1024" version="1.1" xmlns="http://www.w3.org/2000/svg" width="1em" height="1em" class="svg-2uQT9" role="img" alt="" aria-label=""><path d="M175.3 228.4c-93.8 95.9-93.8 251 0 347l250.2 255.9c47.7 48.7 125.3 48.7 173 0l250.2-255.9c93.8-96 93.8-251.1 0-347l-8.7-8.5c-91.7-85-232.3-85-324.1 0l-4 3.7 5 4.9c-94.3-96.4-247.4-96.4-341.6-0.1z m622.1 50.1c66.6 68.1 66.6 178.7 0 246.8l-250.2 255.9c-19.5 20-50.9 20-70.4 0l-250.2-255.9c-66.6-68.1-66.6-178.7 0-246.8 66.1-67.6 173-67.6 239.1 0l20.6 21.2c14 14.4 37.2 14.4 51.3 0.1l20.8-21.2c66.1-67.6 173-67.6 239-0.1z"/></svg>