<svg viewBox="0 0 1024 1024" version="1.1" xmlns="http://www.w3.org/2000/svg" width="1em" height="1em" class="svg-2uQT9" role="img" alt="" aria-label=""><path d="M464.4 105.9c27-10.5 57-10.7 84.1-0.5l300.9 112.3c34.6 12.9 56.9 46.6 55.2 83.4l-7.2 162.8c-6 136.3-75.9 261.7-188.5 338.6l-97.2 66.3c-62.4 42.6-144.4 42.6-206.8 0l-96-65.5c-112.6-76.8-181.5-202.9-185.4-339l-4.7-163.8c-1-36 20.7-68.7 54.3-81.8z m59 66.6c-10.7-4-22.5-3.9-33.2 0.3l-291.2 112.8c-5.3 2-8.7 7.2-8.6 12.8l4.7 163.8c3.3 113.2 60.6 218.1 154.2 281.9l96 65.5c38 25.9 88 25.9 126 0l97.2-66.3c94-64.2 152.3-168.9 157.3-282.6l7.2-162.8c0.3-5.8-3.2-11.1-8.7-13.1z m187.6 212c12.5 12.7 13.6 32.4 3.4 46.3l-3.8 4.4-196.1 192.5c-12.2 12-30.8 13.5-44.7 4.4l-4.4-3.4-112.6-101.7c-14.7-13.3-15.8-35.9-2.6-50.7 11.9-13.2 31.5-15.5 46-6.1l4.6 3.6 87.6 79.1 171.9-168.9c14.1-13.9 36.8-13.7 50.7 0.5z"/></svg>