<svg xmlns="http://www.w3.org/2000/svg" class="icon-2mCsV" version="1.1" viewBox="0 0 1024 1024"><path d="M802.9 169.9c73.3 0 132.7 59.4 132.7 132.6l0 387.5c0 73.3-59.4 132.7-132.7 132.7l-178.8-0.1-53.8 67.5c-24.2 30.3-67.2 36.7-99 15.9l-5.8-4.2c-4.3-3.5-8.3-7.4-11.8-11.7l-53.9-67.5-178.7 0.1c-70.6 0-128.4-55.2-132.4-124.9l-0.3-7.8 0-387.5c0-73.3 59.4-132.7 132.7-132.6z m0 79.1l-581.8 0c-29.6 0-53.5 24-53.5 53.5l0 387.5c0 29.6 24 53.5 53.5 53.6l216.8 0 74.1 92.6 74.1-92.6 216.8 0c29.6 0 53.5-24 53.5-53.6l0-387.5c0-29.6-24-53.5-53.5-53.5z m-290.9 193.2c32.6 0 59.1 26.4 59.1 59.1 0 32.6-26.4 59.1-59.1 59-32.6 0-59.1-26.4-59.1-59 0-32.6 26.4-59.1 59.1-59.1z m-196.9 0c32.6 0 59.1 26.4 59.1 59.1 0 32.6-26.4 59.1-59.1 59-32.6 0-59.1-26.4-59.1-59 0-32.6 26.4-59.1 59.1-59.1z m393.8 0c32.6 0 59.1 26.4 59.1 59.1 0 32.6-26.4 59.1-59.1 59-32.6 0-59.1-26.4-59.1-59 0-32.6 26.4-59.1 59.1-59.1z" fill="#222222" stroke="none" stroke-width="46.54545454545455"/></svg>