<svg viewBox="0 0 1024 1024" version="1.1" xmlns="http://www.w3.org/2000/svg" width="1em" height="1em" class="svg-2uQT9" role="img" alt="" aria-label=""><path d="M256 102.4c-45.5 0-82.9 35-86.7 79.5l-0.3 7.5 0 66.6c0 19.8 16 35.8 35.8 35.8 18.1 0 33.1-13.5 35.5-30.9l0.3-4.9 0-66.6c0-7.3 5.1-13.4 11.9-14.9l3.5-0.4 545.6 0c9.3 0 17.3 7.1 19.2 16.9l0.4 4.3 0 628.2c0 10.5-6.9 18.9-15.7 20.9l-3.9 0.4-545.6 0c-7.3 0-13.4-5.1-15-11.8l-0.4-3.6 0-61.2c0-19.8-16-35.8-35.8-35.9-18.1 0-33.1 13.5-35.5 31l-0.3 4.9 0 61.2c0 45.5 35 82.9 79.5 86.8l7.5 0.3 545.6 0c48.1 0 87.2-37.8 91-85.4l0.3-7.6 0-628.2c0-48.5-36.7-88.7-83.8-92.6l-7.5-0.3-545.6 0z m-49.1 255.7l-130.4 130.4c-14 14-14 36.7 0 50.7l130.4 130.3c14 14 36.7 14 50.7 0 14-14 14-36.7 0-50.7l-70.9-71 342.5 0c19.8 0 35.8-16 35.8-35.8 0-19.8-16-35.8-35.8-35.8l-339 0 67.4-67.4c14-14 14-36.7 0-50.7-14-14-36.7-14-50.7 0z"/></svg>