<svg viewBox="0 0 1024 1024" version="1.1" xmlns="http://www.w3.org/2000/svg" width="1em" height="1em" class="svg-2uQT9" role="img" alt="" aria-label=""><path d="M833.4 194.6c47.3 0 85.6 38.3 85.6 85.6l0 463.6c0 47.3-38.3 85.6-85.6 85.6l-642.8 0c-47.3 0-85.6-38.3-85.6-85.6l0-463.6c0-47.3 38.3-85.6 85.6-85.6l642.8 0z m0 71.6l-642.8 0c-7.7 0-13.9 6.2-14 14l0 463.6c0 7.7 6.2 13.9 14 14l642.8 0c7.7 0 13.9-6.2 14-14l0-69.2-264.5 0c-89.8 0-162.6-72.8-162.5-162.6 0-89.8 72.8-162.6 162.5-162.6l264.5 0 0-69.2c0-6.6-4.6-12.1-10.8-13.6l-3.2-0.4z m14 149.7l-264.5 0.1c-50.5 0-91.9 39-95.7 88.5l-0.3 7.5c0 53 43 96 96 96l264.5-0.1 0-192z m-252 52.6c24 0 43.5 19.5 43.5 43.5 0 24-19.5 43.5-43.5 43.5-24 0-43.5-19.5-43.5-43.5 0-24 19.5-43.5 43.5-43.5z"/></svg>