<svg viewBox="0 0 1024 1024" version="1.1" xmlns="http://www.w3.org/2000/svg" width="1em" height="1em" class="svg-2uQT9" role="img" alt="" aria-label=""><path d="M826.7 168.7l-629.4 0c-58.1 0-105.1 47.1-105.1 105.1l0 435.1 0.2 7.8c4 54.4 49.4 97.3 104.9 97.3l191.8 0 55.4 67.9c3.2 3.9 6.7 7.4 10.6 10.5l6.1 4.5c31.4 20.8 74.1 14.8 98.5-15l55.4-67.9 211.6 0c58.1 0 105.1-47.1 105.1-105.1l0-435.1c0-58.1-47.1-105.1-105.1-105.1z m-629.4 71.7l629.4 0c18.5 0 33.5 15 33.5 33.4l0 435.1c0 18.5-15 33.5-33.5 33.5l-245.6 0-76.9 94.1c-0.6 0.8-1.6 1.1-2.5 1l-1.5-0.8-77.1-94.3-225.8 0c-18.5 0-33.5-15-33.5-33.5l0-435.1c0-18.5 15-33.5 33.5-33.4z"/><path d="M475.2 312.2l-36.4 73.6-81.2 11.8c-8.9 1.3-17.2 5.5-23.4 12l-3.9 4.6c-11.7 16.2-10.1 38.9 4.6 53.3l58.8 57.3-13.9 80.9c-1.5 8.9-0.1 18 4.2 26l2.9 4.8c11.7 16.4 34 22.1 52.4 12.4l72.6-38.2 72.7 38.2c8 4.2 17.1 5.6 26 4.1l5-1.2c19.5-5.9 32-25.5 28.4-46.1l-13.8-80.9 58.8-57.3c6.5-6.3 10.6-14.5 11.9-23.4l0.4-5.2c0.4-20.3-14.4-38.3-35-41.3l-81.3-11.8-36.3-73.6c-4-8.1-10.5-14.6-18.6-18.6-20.3-10-44.8-1.7-54.9 18.6z m36.7 64.3l22.8 46.2 2.9 4.9c6.4 9.4 16.5 15.8 27.9 17.5l50.8 7.4-36.7 35.8-3.8 4.3c-7 9-9.9 20.6-8 32l8.7 50.6-45.5-23.9-5.2-2.3c-10.7-3.8-22.7-3.1-32.9 2.3l-45.5 23.9 8.7-50.6 0.6-5.7c0.3-11.4-4.1-22.5-12.4-30.6l-36.8-35.8 50.9-7.4c13.3-1.9 24.9-10.3 30.8-22.4l22.7-46.2z"/></svg>