<svg viewBox="0 0 1024 1024" version="1.1" xmlns="http://www.w3.org/2000/svg" width="1em" height="1em" class="svg-2uQT9" role="img" alt="" aria-label=""><path d="M793.8 102.4c51 0 91.9 42.1 92 93.5l0 636.6c0 49.2-39.9 89.1-89.2 89.1l-561.3 0c-51 0-91.9-42.1-91.9-93.5l0-632.2c0-51.4 40.9-93.5 91.9-93.5z m0 72.1l-558.5 0c-10.7 0-19.8 9.4-19.8 21.4l0 632.2c0 12.1 9.1 21.4 19.8 21.4l561.3 0c9.4 0 16.9-7.6 17-17l0-636.6c0-12.1-9.1-21.4-19.8-21.4z m-238 389c19.9 0 36.1 16.1 36.1 36.1 0 19.9-16.1 36.1-36.1 36.1l-159.8 0c-19.9 0-36.1-16.1-36.1-36.1 0-19.9 16.1-36.1 36.1-36.1l159.8 0z m77.4-193.2c19.9 0 36.1 16.1 36 36.1 0 19.9-16.1 36.1-36 36l-237.2 0c-19.9 0-36.1-16.1-36.1-36 0-19.9 16.1-36.1 36.1-36.1l237.2 0z"/></svg>