<svg viewBox="0 0 1024 1024" version="1.1" xmlns="http://www.w3.org/2000/svg" width="1em" height="1em" class="titleIcon-YezB4 titleIcon-1ttmS titleIcon-Fi7Tn" role="img" alt="" aria-label="" fill="#222222" aria-hidden="true"><title>Easter</title><path d="M622.4 389.9a593.2 593.2 0 0 0 56.4 57c39.5 30 81.2 57.1 123.6 84.1 11.7 7.3 15.4 12.4 10.2 25.6a505.4 505.4 0 0 1-85.6 139c-17.6 22.7-37.3 43.9-56.3 66.5a272.8 272.8 0 0 1 105.3 199.7h-577.8c-24.9 0-25.6 0-23.4-22.6a250.1 250.1 0 0 1 90-182.9s0 0 0 0c-19-21.2-37.3-43.2-57.1-62.9a515.7 515.7 0 0 1-130.2-254.5 830.9 830.9 0 0 1-19-137.6 327.7 327.7 0 0 1 68-228.2l7.4-7.3 6.5-4.4c18.3 13.2 39.5 24.9 57.1 40.3a512 512 0 0 1 141.9 212.8 1255.9 1255.9 0 0 1 80.4 365.7 90 90 0 0 0 0 13.9h115.6l0-40.2c5.9-68.8 7.3-141.9 13.9-211.4a299.9 299.9 0 0 1 109-215.8 57.1 57.1 0 0 1 79.7-7.3 705.1 705.1 0 0 1 156.5 133.9 292.6 292.6 0 0 1 73.2 149.9 193.1 193.1 0 0 1 0 21.2s0 5.9 0 12.5c-15.4 0-29.3-5.9-42.4-10.3a1811.7 1811.7 0 0 1-283.8-133.8l-13.9-8.1z"/></svg>