<svg viewBox="0 0 1024 1024" version="1.1" xmlns="http://www.w3.org/2000/svg" width="1em" height="1em" class="titleIcon-12v8U" aria-hidden="true"><path d="M750.1 54l6.8 12.3 7.9 15.2 8.8 17.8 14.7 31.1c24.2 53.6 45.6 110.7 61.8 169.4 46.6 167.9 43.7 318-29.6 434.3-72.2 114.5-205.8 181.6-395.2 201l-19.8 1.9c-20.7 2.1-37.4 1.9-50-0.6-12.6-2.5-29-11.2-49.3-26.2-17.4-13.4-34.2-27.8-50.2-43.6-107.3-105.6-144.3-230.5-62.7-367 56.3-94.2 130.1-155.3 249.3-222l57.6-31.8 25-14.6c86.9-52.4 123.5-94 138.1-164 3.4-18.6 19.2-32.8 39-35.7 19.7-2.7 38.7 6.3 47.8 22.5z m-36.7 62.2l-2.2 6.7c-24 64.2-70.5 110.5-155 161.4l-26.2 15.3-57.4 31.6c-116.2 65-178.7 119.8-226.6 200-61.6 103.1-42.5 197.6 53.1 291.6 11.4 11.2 23.5 21.9 35.8 31.9 22.3-123.3 61.8-223.6 118.6-300.9 60.6-82.5 158.3-146.5 293-191.8-113.3 71.8-195.3 148.1-245.9 228.9-47.1 75.1-80.5 170-100.4 284.8 183.3-15.3 305.5-74.8 368.3-174.4 59.8-94.9 67-224.2 22.4-385.1-14.8-53.3-34.6-107.3-58.3-159.7l-14-29.9-5.2-10.4z"/></svg>