<svg viewBox="0 0 1024 1024" version="1.1" xmlns="http://www.w3.org/2000/svg" width="1em" height="1em" class="icon-1IB-t" role="img" alt="" aria-label="" aria-hidden="true"><path d="M320 380.6c16 0 29 13 29 29 0 16-13 29-29 29l-42.7 0c-31.1 0-56.3 25.2-56.3 56.3l0 298.7c0 31.1 25.2 56.3 56.3 56.3l469.4 0c31.1 0 56.3-25.2 56.3-56.3l0-298.7c0-31.1-25.2-56.3-56.3-56.3l-42.7 0c-16 0-29-13-29-29 0-16 13-29 29-29l42.7 0c63.2 0 114.3 51.2 114.3 114.3l0 298.7c0 63.2-51.2 114.3-114.3 114.3l-469.4 0c-63.2 0-114.3-51.2-114.3-114.3l0-298.7c0-63.2 51.2-114.3 114.3-114.3l42.7 0z m213.7-251.8l120.7 120.7c11.3 11.3 11.3 29.7 0 41-11.3 11.3-29.7 11.3-41 0l-72.4-72.3 0 340.7c0 16-13 29-29 29-16 0-29-13-29-29l0-338.4-70 70c-10.5 10.5-26.9 11.3-38.2 2.4l-2.8-2.4c-11.3-11.3-11.3-29.7 0-41l120.7-120.7c11.3-11.3 29.7-11.3 41 0z"/></svg>