<svg viewBox="0 0 1024 1024" version="1.1" xmlns="http://www.w3.org/2000/svg" width="1em" height="1em" class="icon-15Z3E" fill="#000000"><path d="M765.3 175.4c56.5 0 107.3 34.4 128.3 86.8l17.1 42.6c2.5 6.3 4.5 12.8 5.8 19.4l-0.8-3.5 2.9 7.3c5.2 14.6 8.4 29.8 9.4 45.4l0.4 11.8c0 59.9-30.8 112.6-77.4 143.2l0 262.8c0 49.2-37.9 89.6-86.1 93.5l-7.7 0.3-464 0c-49.2 0-89.6-37.9-93.5-86.1l-0.3-7.7 0-262.8c-46.6-30.6-77.3-83.3-77.4-143.2 0-24.9 5.3-49.1 15.8-71.8l-0.3 0.5 0.6-1.8 1.8-5.1 17.1-43.7c20.7-53 71.8-87.9 128.8-87.9z m-124.2 335.5l-2.2 2.2c-28.1 25.1-64.2 40.5-103 42.9l-10.7 0.4c-42.9 0-83-15.9-113.7-43.3l-2.3-2.2-2.3 2.2c-28.1 25.1-64.2 40.5-103 42.9l-10.7 0.4c-7.5 0-14.9-0.5-22.2-1.4l0 236.2c0 10.9 7.8 19.9 18.2 21.8l4 0.4 464 0c10.9 0 19.9-7.8 21.8-18.2l0.4-4 0-236.2c-7.3 0.9-14.6 1.4-22.2 1.4-42.9 0-83-15.9-113.7-43.3l-2.4-2.2z m124.2-263.9l-479.5 0c-27.4 0-52 16.8-62 42.4l-17.1 43.7-1.3 3.9-2.1 5.5-0.6 1.3c-5.9 12.9-9 26.9-9 41.4 0 54.9 44.5 99.5 99.5 99.5 35.3 0 67.4-18.5 85.2-48.3 13.9-23.2 47.5-23.2 61.5 0 17.9 29.7 50 48.3 85.3 48.3 35.3 0 67.4-18.5 85.2-48.3 13.9-23.2 47.5-23.2 61.5 0 17.9 29.7 50 48.3 85.3 48.3 54.9 0 99.5-44.5 99.5-99.5 0-13.8-2.8-27.1-8.1-39.4l-2.3-7c-0.5-2.5-1.2-4.9-2.2-7.3l-17.1-42.7c-10.1-25.2-34.6-41.8-61.7-41.8z"/></svg>