<svg viewBox="0 0 1024 1024" version="1.1" xmlns="http://www.w3.org/2000/svg" width="0.28rem" height="1em" class="icon-2TKwW" src="https://aimg.kwcdn.com/material-put/1e19d4659cb/3321291f-9ab6-4b49-83cb-d1d84c5a39f8.png" alt="Cart" style="width: 0.28rem; height: 0.28rem; fill: rgb(0, 0, 0);"><path d="M369.4 903.3c32.3 0 58.5-26.2 58.5-58.5 0-32.3-26.2-58.5-58.5-58.5-32.3 0-58.5 26.2-58.5 58.5 0 32.3 26.2 58.5 58.5 58.5z m402.3 0c32.3 0 58.5-26.2 58.5-58.5 0-32.3-26.2-58.5-58.5-58.5-32.3 0-58.5 26.2-58.6 58.5 0 32.3 26.2 58.5 58.6 58.5z m-576.5-771.6c36.6 0 68.3 25.4 76.3 61.1l10.9 48.6 523 0c50.5 0 91.8 39.4 94.9 89l0.2 6.1c0 4.8-0.4 9.5-1.1 14.2l-42 277.9c-7 46.5-47 80.9-94 80.9l-391.8 0c-46.9 0-86.8-34.2-94-80.5l-54-348.5-16.4-73.4c-1.3-5.6-6.3-9.7-12-9.6l-122.1 0c-18.2 0-32.9-14.7-32.9-32.9 0-18.2 14.7-32.9 32.9-32.9l122.1 0z m99.2 175.5l48.3 311.7c2.2 14.3 14.5 24.8 28.9 24.8l391.8 0c14.5 0 26.8-10.6 28.9-24.9l42.1-278c0.2-1.4 0.3-2.9 0.3-4.3 0-16.2-13.1-29.3-29.3-29.3l-511 0z"/></svg>