<svg xmlns="http://www.w3.org/2000/svg" version="1.1" viewBox="0 0 1024 1024" width="1em" height="1em" fill="#000000" role="img" class="icon-15Z3E"><path d="M852.3 168.7c58.1 0 105.1 47.1 105.1 105.1l0 0 0 435.1c0 58.1-47.1 105.1-105.1 105.1l0 0-211.6 0-55.4 67.9c-24.4 29.8-67 35.8-98.5 15l0 0-6.1-4.5c-3.9-3.2-7.4-6.7-10.6-10.5l0 0-55.4-67.9-191.8 0c-55.4 0-100.8-42.9-104.9-97.3l0 0-0.2-7.8 0-435.1c0-58.1 47.1-105.1 105.1-105.1l0 0z m0 71.7l-629.4 0c-18.5 0-33.5 15-33.5 33.4l0 0 0 435.1c0 18.5 15 33.5 33.5 33.5l0 0 225.8 0 76.9 94.1c1.5 1.3 3.2 1.1 4.2 0l0 0 76.9-94.1 245.6 0c18.5 0 33.5-15 33.5-33.5l0 0 0-435.1c0-18.5-15-33.5-33.5-33.4l0 0z m-483.7 201.3c28.3 0 51.2 22.9 51.2 51.2 0 28.3-22.9 51.2-51.2 51.2-28.3 0-51.2-22.9-51.2-51.2 0-28.3 22.9-51.2 51.2-51.2z m169 0c28.3 0 51.2 22.9 51.2 51.2 0 28.3-22.9 51.2-51.2 51.2-28.3 0-51.2-22.9-51.2-51.2 0-28.3 22.9-51.2 51.2-51.2z m169 0c28.3 0 51.2 22.9 51.2 51.2 0 28.3-22.9 51.2-51.2 51.2-28.3 0-51.2-22.9-51.2-51.2 0-28.3 22.9-51.2 51.2-51.2z"/></svg>