<svg xmlns="http://www.w3.org/2000/svg" class="starImg-p2_O9" viewBox="0 0 1024 1024" aria-hidden="true" role="img" style="width: 0.14rem; height: 0.14rem; font-size: 0.14rem;"><path d="M512 682.4l-168.6 120.7c-16.4 11.8-39.3 8-51-8.5-6.7-9.4-8.6-21.4-5.2-32.3l62.7-197.6-166.9-123.1c-16.3-12-19.7-34.9-7.7-51.1 6.8-9.3 17.6-14.8 29.2-14.9l207.3-1.5 65.5-196.7c6.4-19.2 27.1-29.5 46.3-23.2 10.9 3.6 19.5 12.2 23.1 23.2l65.5 196.7 207.3 1.5c20.2 0.1 36.5 16.6 36.3 36.8-0.1 11.5-5.6 22.3-14.8 29.2l-166.9 123.1 62.7 197.6c6.1 19.3-4.6 39.8-23.9 45.9-11 3.5-23 1.6-32.3-5.1l-168.6-120.7z"/></svg>