<svg xmlns="http://www.w3.org/2000/svg" version="1.1" viewBox="0 0 1024 1024" width="1em" height="1em" fill="#000000" role="img" class="icon-15Z3E"><path d="M524.8 105c224.8 0 407 182.2 407 407 0 224.8-182.2 407-407 407-224.8 0-407-182.2-407-407 0-224.8 182.2-407 407-407z m0 71.6c-185.2 0-335.4 150.1-335.4 335.4 0 185.2 150.1 335.4 335.4 335.4 185.2 0 335.4-150.1 335.4-335.4 0-185.2-150.1-335.4-335.4-335.4z m-12.8 156.2c21.2 0 38.4 17.2 38.4 38.4l0 156.8 87.8 69c15.1 11.9 18.9 33 9.6 49.2l-3.2 4.8c-13.1 16.7-37.3 19.5-54 6.4l-102.4-80.6c-9.2-7.3-14.6-18.4-14.6-30.2l0-175.4c0-21.2 17.2-38.4 38.4-38.4z"/></svg>