<svg viewBox="0 0 1024 1024" version="1.1" xmlns="http://www.w3.org/2000/svg" width="0.28rem" height="1em" class="icon-2TKwW" src="https://aimg.kwcdn.com/material-put/1e19d4659cb/d9cd5326-e7e7-4128-8846-e39615e5e954.png" alt="Categories" style="width: 0.28rem; height: 0.28rem; fill: rgb(0, 0, 0);"><path d="M217.7 717.7c26.3 0 47.5 21.3 47.5 47.5 0 26.3-21.3 47.5-47.5 47.6-26.3 0-47.5-21.3-47.6-47.6 0-26.3 21.3-47.5 47.6-47.5z m624.8 13.6c18.2 0 32.9 14.7 32.9 32.9 0 16.8-12.6 30.6-28.8 32.6l-4.1 0.3-450.2 0c-18.2 0-32.9-14.7-33-32.9 0-16.8 12.6-30.6 28.8-32.7l4.2-0.2 450.2 0z m-624.8-276.9c26.3 0 47.5 21.3 47.5 47.5 0 26.3-21.3 47.5-47.5 47.6-26.3 0-47.5-21.3-47.6-47.6 0-26.3 21.3-47.5 47.6-47.5z m624.8 13.5c18.2 0 32.9 14.7 32.9 33 0 16.8-12.6 30.6-28.8 32.6l-4.1 0.3-450.2 0c-18.2 0-32.9-14.7-33-32.9 0-16.8 12.6-30.6 28.8-32.7l4.2-0.3 450.2 0z m-624.8-276.8c26.3 0 47.5 21.3 47.5 47.5 0 26.3-21.3 47.5-47.5 47.5-26.3 0-47.5-21.3-47.6-47.5 0-26.3 21.3-47.5 47.6-47.5z m624.8 13.5c18.2 0 32.9 14.7 32.9 32.9 0 16.8-12.6 30.6-28.8 32.7l-4.1 0.3-450.2 0c-18.2 0-32.9-14.7-33-33 0-16.8 12.6-30.6 28.8-32.6l4.2-0.3 450.2 0z"/></svg>