<svg xmlns="http://www.w3.org/2000/svg" version="1.1" xmlns:xlink="http://www.w3.org/1999/xlink" viewBox="0 0 1024 1024" fill="#7F7F7F"><path d="M900.5 347.6c0.6 8.1 0.6 16.2 0.6 24.3 0 249.1-194.6 536.4-550.6 536.5l0-0.2c-105.1 0.1-208.1-29.2-296.6-84.5 15.3 1.8 30.7 2.7 46.1 2.7 87.1 0.1 171.8-28.4 240.3-80.8-82.8-1.5-155.4-54.1-180.8-131 29 5.5 58.9 4.3 87.4-3.2-90.3-17.8-155.2-95-155.3-184.8 0-0.8 0-1.6 0-2.4 26.9 14.6 57 22.7 87.9 23.6-85-55.4-111.2-165.6-59.9-251.7 98.2 117.8 243.2 189.4 398.8 196.9-15.6-65.5 5.7-134.1 55.9-180.1 77.9-71.4 200.5-67.7 273.8 8.2 43.3-8.3 84.9-23.8 122.9-45.8-14.4 43.6-44.7 80.7-85.1 104.3 38.4-4.4 75.8-14.4 111.2-29.7-26 37.9-58.7 71-96.6 97.7z"></path></svg>