<svg xmlns="http://www.w3.org/2000/svg" version="1.1" viewBox="0 0 1024 1024" width="1em" height="1em" fill="#000000" role="img" class="icon-15Z3E"><path d="M832 138.666667a96 96 0 0 1 96 96v469.333333a96 96 0 0 1-96 96l-242.773333-0.042667-75.946667 75.989334a32 32 0 0 1-41.642667 3.114666l-3.584-3.114666-75.989333-75.989334-242.730667 0.042667a96 96 0 0 1-95.786666-89.429333L53.333333 704v-469.333333A96 96 0 0 1 149.333333 138.666667z m0 64h-682.666667a32 32 0 0 0-32 32v469.333333c0 17.664 14.336 32 32 32h256.042667c8.490667 0 16.64 3.413333 22.613333 9.386667l62.677334 62.634666 62.677333-62.634666a32 32 0 0 1 17.578667-8.96l5.034666-0.426667H832a32 32 0 0 0 32-32v-469.333333a32 32 0 0 0-32-32z m-371.925333 100.181333a34.133333 34.133333 0 0 1 61.184 0l36.565333 74.026667 81.706667 11.904a34.133333 34.133333 0 0 1 29.226666 34.389333l-0.341333 4.266667a34.133333 34.133333 0 0 1-9.941333 19.541333l-59.136 57.642667 13.952 81.408a34.133333 34.133333 0 0 1-23.68 38.4l-4.181334 1.024a34.133333 34.133333 0 0 1-21.674666-3.413334l-73.088-38.442666-73.088 38.4a34.133333 34.133333 0 0 1-43.690667-10.368l-2.432-3.925334a34.133333 34.133333 0 0 1-3.413333-21.674666l13.909333-81.408-59.093333-57.6a34.133333 34.133333 0 0 1-3.84-44.416l3.242666-3.84a34.133333 34.133333 0 0 1 19.541334-9.984l81.664-11.904z m30.592 53.632l-25.216 51.114667a34.133333 34.133333 0 0 1-25.685334 18.688l-56.448 8.149333 40.832 39.808a34.133333 34.133333 0 0 1 10.325334 25.472l-0.512 4.736-9.642667 56.149333 50.474667-26.496a34.133333 34.133333 0 0 1 27.392-1.92l4.352 1.92 50.432 26.496-9.6-56.149333a34.133333 34.133333 0 0 1 6.613333-26.666667l3.2-3.541333 40.789333-39.808-56.405333-8.149333a34.133333 34.133333 0 0 1-23.296-14.549334l-2.389333-4.138666-25.216-51.114667z"/></svg>