<svg xmlns="http://www.w3.org/2000/svg" version="1.1" viewBox="0 0 1024 1024" width="1em" height="1em" fill="#FFFFFF" role="img" class="topIcon-11t8B"><path d="M846.2 194.6c44.8 0 81.5 34.4 85.3 78.2l0.3 7.4 0 463.6c0 44.8-34.4 81.5-78.2 85.3l-7.4 0.3-642.8 0c-44.8 0-81.5-34.4-85.3-78.2l-0.3-7.4 0-463.6c0-44.8 34.4-81.5 78.2-85.3l7.4-0.3 642.8 0z m0 71.6l-642.8 0c-6.6 0-12.1 4.6-13.6 10.8l-0.4 3.2 0 463.6c0 6.6 4.6 12.1 10.8 13.6l3.2 0.4 642.8 0c6.6 0 12.1-4.6 13.6-10.8l0.4-3.2 0-69.2-264.5 0c-89.8 0-162.6-72.8-162.5-162.6 0-89.8 72.8-162.6 162.5-162.6l264.5 0 0-69.2c0-6.6-4.6-12.1-10.8-13.6l-3.2-0.4z m14 149.7l-264.5 0.1c-50.5 0-91.9 39-95.7 88.5l-0.3 7.5c0 53 43 96 96 96l264.5-0.1 0-192z m-252 52.6c24 0 43.5 19.5 43.5 43.5 0 24-19.5 43.5-43.5 43.5-24 0-43.5-19.5-43.5-43.5 0-24 19.5-43.5 43.5-43.5z"/></svg>