<svg xmlns="http://www.w3.org/2000/svg" version="1.1" xmlns:xlink="http://www.w3.org/1999/xlink" viewBox="0 0 1024 1024" fill="#7F7F7F"><path d="M80.8 512c0 176.5 106.2 328.2 258.1 394.9-1.2-30.1-0.2-66.2 7.5-99 8.3-35 55.5-234.9 55.5-234.9 0 0-13.8-27.5-13.8-68.3 0-63.9 37-111.6 83.2-111.6 39.2 0 58.2 29.5 58.2 64.8 0 39.4-25.1 98.4-38.1 153-10.8 45.7 22.9 83 68 83 81.7 0 136.7-104.9 136.7-229.2 0-94.5-63.6-165.2-179.4-165.2-130.8 0-212.3 97.5-212.2 206.4 0 37.6 11.1 64.1 28.4 84.6 8 9.4 9.1 13.2 6.2 24-2.1 7.9-6.8 27-8.8 34.6-2.9 10.9-11.7 14.8-21.6 10.8-60.2-24.6-88.3-90.6-88.3-164.7 0-122.5 103.3-269.3 308.2-269.3 164.6 0 273 119.1 272.9 246.9 0 169.1-94 295.5-232.6 295.5-46.5 0-90.3-25.2-105.4-53.7 0 0-25 99.3-30.3 118.5-9.1 33.2-27 66.5-43.4 92.4 38.8 11.4 79.7 17.7 122.2 17.7 238.1 0 431.1-193 431.2-431.2 0-238.1-193.1-431.2-431.2-431.2-238.1 0-431.2 193-431.2 431.2z"></path></svg>