<svg xmlns="http://www.w3.org/2000/svg" version="1.1" viewBox="0 0 35 9" width="1em" height="1em" fill="#FFF" role="img" class="arrow-1tp0y" stroke="#DFDFDF" fill-rule="evenodd"><path d="M17.038 2.088c.337-.012.679.09.963.308l5.21 3.987a8.5 8.5 0 0 0 5.166 1.75H65c.966 0 1.841.392 2.475 1.025a3.489 3.489 0 0 1 1.025 2.475v352.136c0 .966-.392 1.841-1.025 2.475A3.489 3.489 0 0 1 65 367.269h-324a3.489 3.489 0 0 1-2.475-1.025 3.489 3.489 0 0 1-1.025-2.475V11.633c0-.967.392-1.842 1.025-2.475A3.489 3.489 0 0 1-259 8.133H6.45a8.5 8.5 0 0 0 5.62-2.122l4.028-3.55c.268-.236.602-.362.94-.373z"/></svg>