<svg xmlns="http://www.w3.org/2000/svg" version="1.1" xmlns:xlink="http://www.w3.org/1999/xlink" viewBox="0 0 1024 1024" fill="#7F7F7F"><path d="M571.3 107.8c35.4 0.1 55 0.4 72.6 1l14.3 0.5c6.4 0.3 13 0.6 20.4 0.9 43 2 72.4 8.8 98.2 18.8 26.6 10.3 49.1 24.2 71.6 46.6 22.5 22.5 36.3 45 46.6 71.6 10 25.7 16.8 55.1 18.8 98.1 0.4 9.4 0.8 17.4 1.1 25.3l0.3 9.5c0.6 19.2 0.9 40.9 1 82.7l0 22.6c0 8.2 0 17 0 26.6l0 13.8c0 4.4 0 8.7 0 12.7l0 22.7c-0.1 41.8-0.4 63.5-1 82.7l-0.3 9.5c-0.3 7.9-0.7 15.9-1.1 25.3-2 43-8.8 72.4-18.8 98.1-10.3 26.6-24.2 49.1-46.6 71.6-22.5 22.5-45 36.3-71.6 46.6-25.7 10-55.1 16.8-98.2 18.8-9.4 0.4-17.4 0.8-25.2 1.1l-9.5 0.3c-19.2 0.6-40.9 0.9-82.7 1l-22.7 0c-8.2 0-17 0-26.5 0l-13.8 0c-4.4 0-8.7 0-12.8 0l-22.6 0c-41.8-0.1-63.5-0.4-82.7-1l-9.5-0.3c-7.9-0.3-15.9-0.7-25.3-1.1-43-2-72.4-8.8-98.1-18.8-26.6-10.3-49.1-24.2-71.6-46.6-22.5-22.5-36.3-45-46.6-71.6-10-25.7-16.8-55.1-18.8-98.1-0.3-7.5-0.6-14.1-0.9-20.5l-0.5-14.3c-0.6-17.6-0.8-37.3-1-72.6l0-118.6c0.1-35.4 0.4-55 1-72.6l0.5-14.3c0.3-6.4 0.6-13 0.9-20.5 2-43 8.8-72.4 18.8-98.1 10.3-26.6 24.2-49.1 46.6-71.6 22.5-22.5 45-36.3 71.6-46.6 25.7-10 55.1-16.8 98.1-18.8 7.5-0.3 14.1-0.6 20.5-0.9l14.3-0.5c17.6-0.6 37.3-0.8 72.6-1z m-33.2 72.8l-52.2 0c-4 0-7.9 0-11.6 0l-20.5 0.1c-37.8 0.1-57.1 0.4-75.7 1l-9.3 0.4c-6.3 0.3-12.8 0.5-20.2 0.8-39.4 1.8-60.8 8.4-75 14-18.9 7.3-32.3 16.1-46.5 30.2-14.1 14.1-22.9 27.6-30.2 46.5-5.5 14.2-12.1 35.6-14 75-0.3 7.4-0.6 13.9-0.8 20.2l-0.4 9.3c-0.6 18.6-0.9 37.9-1 75.7l-0.1 20.5c0 3.7 0 7.6 0 11.6l0 52.2c0 4 0 7.9 0 11.5l0.1 20.6c0.1 37.8 0.4 57.1 1 75.6l0.4 9.3c0.3 6.3 0.5 12.8 0.8 20.2 1.8 39.4 8.4 60.8 14 75.1 7.3 18.9 16.1 32.3 30.2 46.5 14.1 14.1 27.6 22.9 46.5 30.2 14.2 5.5 35.6 12.1 75 13.9 7.4 0.3 13.9 0.6 20.2 0.9l9.3 0.4c21.6 0.7 44.3 1 96.2 1.1l75.3 0c51.9-0.1 74.6-0.4 96.2-1.1l9.3-0.4c6.3-0.3 12.8-0.5 20.2-0.9 39.4-1.8 60.8-8.4 75.1-13.9 18.9-7.3 32.3-16.1 46.5-30.2 14.1-14.1 22.9-27.6 30.2-46.5 5.5-14.2 12.1-35.6 13.9-75.1 0.3-7.4 0.6-13.9 0.9-20.2l0.4-9.3c0.7-21.6 1-44.3 1.1-96.2l0-75.3c-0.1-51.9-0.4-74.6-1.1-96.2l-0.4-9.3c-0.3-6.3-0.5-12.8-0.9-20.2-1.8-39.4-8.4-60.8-13.9-75-7.3-18.9-16.1-32.3-30.2-46.5-14.1-14.1-27.6-22.9-46.5-30.2-14.2-5.5-35.6-12.1-75.1-14-7.4-0.3-13.9-0.6-20.2-0.8l-9.3-0.4c-18.6-0.6-37.9-0.9-75.6-1l-20.6-0.1c-3.7 0-7.6 0-11.5 0z m-26.1 123.8c114.6 0 207.6 92.9 207.6 207.6 0 114.6-92.9 207.6-207.6 207.6-114.6 0-207.6-92.9-207.6-207.6 0-114.6 92.9-207.6 207.6-207.6z m0 72.8c-74.4 0-134.7 60.3-134.8 134.8 0 74.4 60.3 134.7 134.8 134.7 74.4 0 134.7-60.3 134.7-134.7 0-74.4-60.3-134.7-134.7-134.8z m215.8-129.5c26.8 0 48.5 21.7 48.5 48.5 0 26.8-21.7 48.5-48.5 48.5-26.8 0-48.5-21.7-48.5-48.5 0-26.8 21.7-48.5 48.5-48.5z"></path></svg>