<svg xmlns="http://www.w3.org/2000/svg" version="1.1" xmlns:xlink="http://www.w3.org/1999/xlink" viewBox="0 0 1024 1024" fill="#7F7F7F"><path d="M534 107.8l139.6 0c0 102.1 83.3 184.8 186.1 184.8l2.6-0.1 0 138.6-2.6 0.1 0 0c-69.2 0-133.4-21.4-186.1-58l0 288.9c0 140.3-114.6 254.1-256 254.1-141.3 0-255.9-113.8-255.9-254.1 0-140.3 114.6-254.1 255.9-254 7.8 0 15.6 0.3 23.3 1l0 139.9c-7.5-1.5-15.3-2.3-23.3-2.4-64.2 0-116.3 51.7-116.3 115.5 0 63.8 52.1 115.5 116.3 115.5 64.2 0 116.3-51.7 116.4-115.5l0-554.3z"></path></svg>