<svg width="28px" height="29px" viewBox="0 0 28 29" version="1.1" xmlns="http://www.w3.org/2000/svg" class="rightArrow-3dmHQ"><defs><rect x="8" y="1" width="13" height="28"/></defs><g stroke="none" stroke-width="1" fill="none" fill-rule="evenodd"><g transform="translate(-34.000000, -204.000000)"><g transform="translate(27.000000, 198.000000)"><g transform="translate(7.000000, 6.000000)"><path d="M12.3786797,7.6 C12.8375008,7.6 13.2161314,7.94333667 13.2716674,8.38710591 L13.2786797,8.5 L13.2786797,17.6 L22.3786797,17.6 C22.8375008,17.6 23.2161314,17.9433367 23.2716674,18.3871059 L23.2786797,18.5 C23.2786797,18.9588212 22.935343,19.3374518 22.4915737,19.3929877 L22.3786797,19.4 L12.3786797,19.4 C11.9198585,19.4 11.5412279,19.0566633 11.4856919,18.6128941 L11.4786797,18.5 L11.4786797,8.5 C11.4786797,8.00294373 11.8816234,7.6 12.3786797,7.6 Z" fill="#000000" fill-rule="nonzero" mask="url(#mask-2)" transform="translate(17.378680, 13.500000) rotate(-315.000000) translate(-17.378680, -13.500000) "/></g></g></g></g></svg>