<svg xmlns="http://www.w3.org/2000/svg" version="1.1" xmlns:xlink="http://www.w3.org/1999/xlink" viewBox="0 0 1024 1024" fill="#7F7F7F"><path d="M523.2 188.6c76.9 0 148.1 1.6 213.7 4.7l32.4 1.7c103.5 5.9 187 87 195.8 190.3 3.3 38.7 5 78.3 5 118.6 0 33.9-1.2 67.8-3.5 101.7l-2.7 33.9c-9.5 102.6-92.5 182.9-195.4 188.9-78.1 4.6-161.8 6.9-251.3 7-80.6 0-156.4-1.7-227.2-5.2l-35-1.9c-103.2-6.1-186.4-86.8-195.5-189.8-3.8-42.3-5.6-84.9-5.6-127.7 0-42.2 1.8-84 5.4-125.4l0 0c9.1-103.2 92.5-184.1 196-189.9 80.7-4.6 170-6.8 267.9-6.9z m-99 192.4l0 263.6 230.9-130.1-230.9-133.5z"></path></svg>