<svg xmlns="http://www.w3.org/2000/svg" version="1.1" viewBox="0 0 1024 1024" width="1em" height="1em" fill="#000000" role="img" class="icon-15Z3E"><path d="M450.6 106.3c38-22 84.9-22 122.8 0l0 0 270.3 156c38 22 61.4 62.5 61.4 106.5l0 0 0 312c0 43.9-23.4 84.5-61.4 106.5l0 0-270.3 156c-38 22-84.9 22-122.8 0l0 0-270.3-156c-38-22-61.4-62.5-61.4-106.5l0 0 0-312c0-43.9 23.4-84.5 61.4-106.5l0 0z m87 62.1c-15.8-9.1-35.4-9.1-51.2 0l0 0-270.3 156c-15.8 9.1-25.6 26-25.6 44.4l0 0 0 312c0 18.3 9.8 35.2 25.6 44.4l0 0 270.3 156c15.8 9.1 35.4 9.1 51.2 0l0 0 270.3-156c15.8-9.1 25.6-26 25.6-44.4l0 0 0-312c0-18.3-9.8-35.2-25.6-44.4l0 0z m-25.6 218.2c76.4 0 138.2 61.9 138.2 138.2 0 76.3-61.9 138.2-138.2 138.2-76.3 0-138.2-61.9-138.2-138.2 0-76.4 61.9-138.2 138.2-138.2z m0 71.6c-36.8 0-66.6 29.8-66.6 66.6 0 36.7 29.8 66.6 66.6 66.6 36.8 0 66.6-29.8 66.6-66.6 0-36.8-29.8-66.6-66.6-66.6z"/></svg>