<svg xmlns="http://www.w3.org/2000/svg" version="1.1" viewBox="0 0 1024 1024" width="1em" height="1em" fill="#000000" role="img" class="icon-15Z3E"><path d="M512 107.5c217.7 0 394.2 176.5 394.2 394.3l0 51.2 0 0 0 281.6c0 33.9-27.5 61.4-61.4 61.4l-102.4 0c-62.2 0-112.6-50.4-112.6-112.6l0-153.6c0-62.2 50.4-112.6 112.6-112.7l92.2 0 0-15.3c0-178.1-144.4-322.6-322.6-322.6-178.1 0-322.6 144.4-322.6 322.6l0 15.3 92.2 0c59.5 0 108.2 46.1 112.4 104.6l0.2 8.1 0 153.6c0 62.2-50.4 112.6-112.6 112.6l0 0-102.4 0c-33.9 0-61.4-27.5-61.4-61.4l0 0 0-332.8c0-217.7 176.5-394.2 394.2-394.3z m-230.4 481.3l-92.2 0 0 235.5 92.2 0c22.6 0 41-18.3 41-40.9l0 0 0-153.6c0-22.6-18.3-41-41-41l0 0z m553 0l-92.2 0c-22.6 0-41 18.3-41 41l0 153.6c0 22.6 18.3 41 41 40.9l92.2 0 0-235.5z"/></svg>