<svg xmlns="http://www.w3.org/2000/svg" version="1.1" viewBox="0 0 24 24" width="1em" height="1em" fill="#000000" role="img" class="icon-1_N1Y"><path d="M6 2.4a2.04 2.04 0 0 0-2.033 1.864l-.007.176V6a.84.84 0 0 0 1.672.114L5.64 6V4.44a.36.36 0 0 1 .277-.35L6 4.08h12.788c.217 0 .406.167.45.396l.01.102v14.724a.49.49 0 0 1-.37.488l-.09.01H6a.36.36 0 0 1-.35-.277l-.01-.083v-1.436a.84.84 0 0 0-1.672-.114l-.008.114v1.436a2.04 2.04 0 0 0 1.864 2.033L6 21.48h12.788c1.128 0 2.044-.885 2.133-2l.007-.178V4.578c0-1.137-.86-2.08-1.964-2.17l-.176-.008H6zM4.854 8.389l-3.065 3.065c-.3.3-.323.772-.07 1.099l.07.078 3.065 3.065a.833.833 0 0 0 1.177 0l.01-.01a.833.833 0 0 0 0-1.177l-1.665-1.67 8.034.001c.46 0 .833-.373.833-.833v-.014a.833.833 0 0 0-.833-.833H4.458l1.584-1.583a.833.833 0 0 0 0-1.178l-.01-.01a.833.833 0 0 0-1.178 0z"/></svg>