<svg xmlns="http://www.w3.org/2000/svg" version="1.1" xmlns:xlink="http://www.w3.org/1999/xlink" viewBox="0 0 1024 1024" fill="#000"><path d="M201.3 157.6c13.6 0 29.4 2.8 46.3 10.9 26.4 12.8 47 35.7 57.7 68.8l1.4 5.6 23.5 147.7c7.1 45.3 15.4 99.4 25.1 162.1 3.6 22.4 22 38.5 43.1 38.5l338.5 0c21.2 0 39.7-16.2 43.4-39.7l47.4-257.9c3.9-21.4 24.5-35.5 45.9-31.6 21.4 3.9 35.5 24.5 31.6 45.9l-47.2 256.8c-9.4 60.5-60.6 105.3-121.1 105.3l-338.5 0c-60.3 0-111.3-44.6-120.9-105.1l-35.5-228.1-12.5-77.5-1-2.8c-5.9-14.1-14.9-19.2-24.1-20l-3.1-0.2-83.1 0c-21.8 0-39.4-17.6-39.4-39.3 0-21.8 17.6-39.4 39.4-39.4l83.1 0z m369.8-0.1c21.8 0 39.4 17.6 39.4 39.4l0 78.8 78.7 0c21.8 0 39.4 17.6 39.4 39.4 0 21.8-17.6 39.4-39.4 39.4l-78.7 0 0 78.7c0 21.8-17.6 39.4-39.4 39.4-21.8 0-39.4-17.6-39.4-39.4l0-78.7-78.8 0c-21.8 0-39.4-17.6-39.4-39.4 0-21.8 17.6-39.4 39.4-39.4l78.8 0 0-78.8c0-21.8 17.6-39.4 39.4-39.4z m-157.6 689.3c32.6 0 59.1-26.4 59.1-59.1 0-32.6-26.4-59.1-59.1-59.1-32.6 0-59.1 26.4-59 59.1 0 32.6 26.4 59.1 59 59.1z m315.1 0c32.6 0 59.1-26.4 59.1-59.1 0-32.6-26.4-59.1-59.1-59.1-32.6 0-59.1 26.4-59.1 59.1 0 32.6 26.4 59.1 59.1 59.1z"></path></svg>