<svg xmlns="http://www.w3.org/2000/svg" version="1.1" viewBox="0 0 1024 1024" stroke-width="0"><g><path d="M875.1 359.5l7.3 4.5c8.8 5.5 17.4 11.2 25.9 17.1l8.5 6 7 4.9-9.9 13.9-7-4.9c-8.3-5.9-16.6-11.5-25.1-17.1l-8.5-5.4-7.3-4.6 9.1-14.4z m-727-1l9.5 14.1-7 4.8c-8.8 6-17.9 12.3-27.5 19.2l-5.8 4.2-6.9 5-10-13.8 6.9-5c9.9-7.2 19.3-13.8 28.3-20l12.5-8.5z m644.5-42.5l7.8 3.6c9.4 4.3 18.7 8.9 27.9 13.6l9.2 4.8 7.5 4-8 15.1-7.5-4c-8.9-4.8-18-9.3-27.1-13.7l-9.2-4.3-7.7-3.6 7.1-15.5z m-563.7-4.1l7.6 15.2-7.6 3.8c-9.4 4.7-18.9 9.8-28.3 15.2l-7.2 4.2-7.3 4.3-8.7-14.7 7.4-4.4c9.8-5.7 19.5-11.1 29.2-16.1l7.3-3.7 7.6-3.8z m476.2-28.2l8.1 2.5c9.9 3.1 19.8 6.3 29.6 9.8l9.7 3.6 8 3-6 16-8-3c-9.5-3.5-19-6.9-28.6-10l-9.7-3.1-8.1-2.5 5-16.3z m-388.6-5l4.9 16.4-8.2 2.4c-10.4 3.1-20.6 6.5-30.6 10.2l-7.5 2.8-8 3.1-6.1-15.9 7.9-3.1c10.3-4 20.7-7.6 31.4-11l8-2.5 8.2-2.4z m314.9-12.4l8.3 1.6c5.2 1 10.3 2 15.5 3.2l7.7 1.7 8.3 1.9-3.8 16.6-8.3-1.9c-5-1.1-10-2.2-15-3.2l-7.6-1.5-8.4-1.7 3.3-16.7z m-223.1-5.6l2.2 17-8.4 1.1c-11 1.5-21.7 3.2-32.1 5.1l-7.8 1.5-8.4 1.6-3.3-16.7 8.3-1.7c10.6-2.1 21.5-4 32.6-5.6l8.4-1.1 8.5-1.2z" fill="#cdcdcd" stroke="none" stroke-width="8.533333333333333"/><path d="M779.6 508.9l7.1 4.8c9.4 6.3 18.5 12.9 27.2 19.6l6.4 5.1 6.6 5.4-10.7 13.2-6.6-5.3c-8.2-6.6-16.7-13-25.7-19.3l-6.7-4.6-7.1-4.7 9.5-14.2z m-542.8 4.5l9.9 13.9-6.9 4.9c-6.5 4.6-12.9 9.4-19.1 14.3l-6 5-6.6 5.4-10.9-13.1 6.6-5.4c6.3-5.2 12.7-10.3 19.4-15.2l6.7-4.9 6.9-4.9z m82.3-45.2l7 15.6-7.8 3.5c-9.8 4.4-19.5 9.2-28.9 14.2l-7 3.9-7.5 4.1-8.3-14.9 7.5-4.2c9.7-5.4 19.6-10.5 29.6-15.2l7.6-3.5 7.8-3.5z m377.3-2.5l7.9 3.3c10.3 4.4 20.3 9.1 30.2 14.1l7.4 3.9 7.5 3.9-8 15.1-7.5-4c-9.4-5-19.1-9.7-28.9-14l-7.5-3.3-7.8-3.4 6.7-15.6z m-288-26.2l3.9 16.6-8.3 2c-10.5 2.5-20.8 5.3-31 8.5l-7.7 2.5-8.1 2.6-5.3-16.2 8.1-2.7c10.5-3.5 21.2-6.6 32-9.3l8.1-2 8.3-2z m198.4-1.3l8.3 1.9c10.8 2.4 21.6 5.2 32.3 8.4l8 2.4 8.1 2.6-5.1 16.2-8.2-2.5c-10.3-3.2-20.6-6.1-31-8.7l-7.8-1.8-8.3-1.9 3.7-16.6z" fill="#cdcdcd" stroke="none" stroke-width="8.533333333333333"/><path d="M690.5 661.1l6.8 5c9.9 7.3 19.1 15.1 27.8 23.6l4.2 4.2 6 6.1-12.2 11.9-6-6.1c-7.8-8-16.3-15.5-25.3-22.5l-4.6-3.4-6.9-5.1 10.2-13.7z m-345.1-6.4l9.5 14.1-7.1 4.8c-9.4 6.3-18.4 13.3-26.8 20.8l-4.2 3.8-6.2 5.9-11.7-12.5 6.3-5.8c8.9-8.3 18.3-15.9 28.1-22.9l5-3.5 7.1-4.7z m259.2-33.7l8.1 2.5c11.5 3.5 22.9 7.8 33.9 12.9l5.5 2.5 7.7 3.7-7.4 15.4-7.7-3.7c-10.2-4.9-20.8-9.2-31.6-12.7l-5.4-1.7-8.1-2.5 5-16.4z m-171.2-1.8l4 16.6-8.3 2c-11 2.6-21.9 6-32.4 10.2l-5.3 2.1-7.9 3.3-6.5-15.8 7.8-3.3c11.2-4.7 22.6-8.5 34.4-11.6l5.9-1.5 8.3-2z" fill="#cdcdcd" stroke="none" stroke-width="8.533333333333333"/><path d="M512 181.8c-1.7 0-3.4 0.1-5.1 0.2-42.1 2.8-74 39.2-71.2 81.3l24.8 373.8c1.8 27.1 24.3 48.2 51.5 48.2 27.2 0 49.7-21.1 51.5-48.2l24.8-373.8c0.1-1.7 0.2-3.4 0.1-5 0-42.2-34.2-76.4-76.4-76.5z m0 17.1c32.8 0 59.4 26.6 59.4 59.4 0 1.3 0 2.6-0.2 3.9l-24.8 373.8c-1.2 18.1-16.3 32.2-34.4 32.2-18.2 0-33.2-14.1-34.4-32.2l-24.8-373.8c-2.2-32.7 22.6-61 55.3-63.2 1.3-0.1 2.6-0.1 3.9-0.1z" fill="#cdcdcd" stroke="none" stroke-width="8.533333333333333"/><path d="M512 731.2c-30.6 0-55.5 24.8-55.5 55.5 0 30.6 24.8 55.5 55.5 55.5 30.6 0 55.5-24.8 55.5-55.5 0-30.6-24.8-55.5-55.5-55.5z m0 17.1c21.2 0 38.4 17.2 38.4 38.4 0 21.2-17.2 38.4-38.4 38.4-21.2 0-38.4-17.2-38.4-38.4 0-21.2 17.2-38.4 38.4-38.4z" fill="#cdcdcd" stroke="none" stroke-width="8.533333333333333"/></g></svg>