<svg xmlns="http://www.w3.org/2000/svg" version="1.1" xmlns:xlink="http://www.w3.org/1999/xlink" viewBox="0 0 1024 1024" fill="#fff"><path d="M557.7 39.4c57.2 0.1 84.7 0.4 109.1 1.2l17 0.6c7.2 0.3 14.6 0.6 23.1 1 50.3 2.3 84.7 10.3 114.7 22 31.1 12.1 57.4 28.2 83.7 54.5 26.3 26.3 42.4 52.6 54.5 83.7 11.7 30.1 19.7 64.4 22 114.7 0.4 8.4 0.7 15.8 1 23.1l0.6 17c0.8 24.4 1.1 51.8 1.2 109.1l0 33.2 0 0 0 12.5c0 4.3 0 8.4 0 12.5l0 33.2c-0.1 87.6-0.8 105.5-2.8 149.2-2.3 50.3-10.3 84.7-22 114.7-12.1 31.1-28.2 57.4-54.5 83.7-26.3 26.3-52.6 42.4-83.7 54.5-30.1 11.7-64.4 19.7-114.7 22-8.4 0.4-15.8 0.7-23.1 1l-17 0.6c-24.4 0.8-51.8 1.1-109.1 1.2l-33.2 0 0 0-12.5 0c-4.3 0-8.4 0-12.5 0l-33.2 0c-87.6-0.1-105.5-0.8-149.2-2.8-50.3-2.3-84.7-10.3-114.7-22-31.1-12.1-57.4-28.2-83.7-54.5-26.3-26.3-42.4-52.6-54.5-83.7-11.7-30.1-19.7-64.4-22-114.7-2-43.7-2.7-61.6-2.8-149.2l0-91.4c0.1-57.2 0.4-84.7 1.2-109.1l0.6-17c0.3-7.2 0.6-14.6 1-23.1 2.3-50.3 10.3-84.7 22-114.7 12.1-31.1 28.2-57.4 54.5-83.7 26.3-26.3 52.6-42.4 83.7-54.5 30.1-11.7 64.4-19.7 114.7-22 43.7-2 61.6-2.7 149.2-2.8z m-0.1 78.8l-91.2 0c-63.8 0.1-90.2 0.5-117 1.4l-8.5 0.3c-7.2 0.3-14.6 0.6-23 1-46.8 2.1-72.3 10-89.2 16.6-22.4 8.7-38.4 19.1-55.3 35.9-16.8 16.8-27.2 32.8-35.9 55.3-6.6 16.9-14.4 42.4-16.6 89.2-0.4 8.4-0.7 15.9-1 23l-0.3 8.5c-1 26.7-1.3 53.1-1.4 117l0 91.2c0.1 63.8 0.5 90.2 1.4 117l0.3 8.5c0.3 7.2 0.6 14.6 1 23 2.1 46.8 10 72.3 16.6 89.2 8.7 22.4 19.1 38.4 35.9 55.3 16.8 16.8 32.8 27.2 55.3 35.9 16.9 6.6 42.4 14.4 89.2 16.6 8.4 0.4 15.9 0.7 23 1l8.5 0.3c26.7 1 53.1 1.3 117 1.4l33.1 0 0 0 12.5 0c4.3 0 8.4 0 12.5 0l33.1 0c63.8-0.1 90.2-0.5 117-1.4l8.5-0.3c7.2-0.3 14.6-0.6 23-1 46.8-2.1 72.3-10 89.2-16.6 22.4-8.7 38.4-19.1 55.3-35.9 16.8-16.8 27.2-32.8 35.9-55.3 6.6-16.9 14.4-42.4 16.6-89.2 0.4-8.4 0.7-15.9 1-23l0.3-8.5c1-26.7 1.3-53.1 1.4-117l0-33.1 0 0 0-12.5c0-4.3 0-8.4 0-12.5l0-33.1c-0.1-63.8-0.5-90.2-1.4-117l-0.3-8.5c-0.3-7.2-0.6-14.6-1-23-2.1-46.8-10-72.3-16.6-89.2-8.7-22.4-19.1-38.4-35.9-55.3-16.8-16.8-32.8-27.2-55.3-35.9-16.9-6.6-42.4-14.4-89.2-16.6-8.4-0.4-15.9-0.7-23-1l-8.5-0.3c-26.7-1-53.1-1.3-117-1.4z m-45.6 157.5c130.5 0 236.3 105.8 236.3 236.3 0 130.5-105.8 236.3-236.3 236.3-130.5 0-236.3-105.8-236.3-236.3 0-130.5 105.8-236.3 236.3-236.3z m0 78.8c-87 0-157.5 70.5-157.5 157.5 0 87 70.5 157.5 157.5 157.5 87 0 157.5-70.5 157.5-157.5 0-87-70.5-157.5-157.5-157.5z m265.8-157.6c27.2 0 49.2 22 49.3 49.3 0 27.2-22 49.2-49.3 49.2-27.2 0-49.2-22-49.2-49.2 0-27.2 22-49.2 49.2-49.3z"></path></svg>