<svg xmlns="http://www.w3.org/2000/svg" version="1.1" xmlns:xlink="http://www.w3.org/1999/xlink" viewBox="0 0 1024 1024" fill="#aaa"><path d="M522.9 148.1c11 3.7 19.7 12.7 23.2 24.2l68.8 226.1 226.9-1.3c19.7-0.1 35.8 16.5 35.9 37.2 0.1 12.1-5.5 23.5-14.9 30.6l-184.2 138.4 71.3 225.3c6.2 19.6-4 40.8-22.7 47.2-11 3.8-23.1 1.8-32.4-5.4l-182.8-140.5-182.8 140.5c-15.9 12.2-38.3 8.7-49.9-7.9-6.9-9.8-8.8-22.4-5.2-33.9l71.3-225.3-184.2-138.4c-16-12-19.7-35.4-8.2-52.2 6.8-9.8 17.6-15.6 29.2-15.6l226.9 1.3 68.8-226.1c6-19.7 26.1-30.5 45-24.2z m60.8 295.4l-71.7-235.2-71.7 235.2-235.8-1.4 191.6 144-74.2 234.2 190.1-146.1 190 146.1-74.1-234.2 191.5-144-235.7 1.4z"></path></svg>