<svg viewBox="0 0 1024 1024" version="1.1" xmlns="http://www.w3.org/2000/svg" width="1em" height="1em" class="icon-1znjW iconFill-eebYp cartIcon-1vjV3" role="img" alt="" aria-label="" aria-hidden="true"><path d="M426.7 917.3c35.3 0 64-28.7 64-64 0-35.3-28.7-64-64-64-35.3 0-64 28.7-64 64 0 35.3 28.7 64 64 64z m341.3 0c35.3 0 64-28.7 64-64 0-35.3-28.7-64-64-64-35.3 0-64 28.7-64 64 0 35.3 28.7 64 64 64z m-576-789.3c14.8 0 31.8 3 50.1 11.9 26.2 12.7 47.2 34.6 59 64.5l2.9 8.3c3.4 9.3 5.6 19.3 7.8 34.7l1.1 8.6 530.9 0c56.6 0.1 102.8 44.1 106.4 99.8l0.2 7c0 4.9-0.4 9.9-1.1 14.9l-6.8 47.4-34.4 186.6c-10.2 65.5-65.6 114.1-131.1 114.1l-366.7 0c-65.3 0-120.6-48.3-131-113.7l-41.4-264c-1.1-7-2.1-14.3-3.1-22.2l-1.7-14.7-3.2-29.7c-2.4-22.7-4.4-35-6.4-40.8-6.9-21.4-19.2-27.3-31.5-27.3l-85.3 0c-23.6 0-42.7-19.1-42.7-42.7 0-23.6 19.1-42.7 42.7-42.7l85.3 0z m651.8 213.3l-520.6 0 40.4 257.5c3.9 24.3 23.8 41.7 46.7 41.7l366.7 0c23 0 43-17.5 47-43.1l34.9-189.9 5.9-41.6c0.2-1.1 0.2-2.2 0.2-3.2 0-11.8-9.5-21.3-21.2-21.4z"/></svg>