<svg viewBox="0 0 1024 1024" version="1.1" xmlns="http://www.w3.org/2000/svg" width="1em" height="1em" class="fireIcon-3jTqB" role="img" alt="" aria-label="" style="fill: rgb(251, 119, 7);"><path d="M432.1 0c149.7 87.7 250.7 246.3 254.3 428.1 30.2-30.1 52.4-68 63-110.3l0.8-3.2c88.8 68.6 145.8 174.8 145.8 293.9 0 6.8-0.2 13.6-0.6 20.4 0.4 6.8 0.6 13.6 0.6 20.5 0 206.9-171.9 374.6-384 374.6-212.1 0-384-167.7-384-374.6 0-103.1 42.7-196.4 111.7-264.2 91.9-104.6 158.1-231.2 189.3-370.5l3.1-14.7z"/></svg>